<svg xmlns="http://www.w3.org/2000/svg"  viewBox="0 0 26 26" width="16px" height="16px"><path d="M 21.125 0 L 4.875 0 C 2.183594 0 0 2.183594 0 4.875 L 0 21.125 C 0 23.816406 2.183594 26 4.875 26 L 21.125 26 C 23.816406 26 26 23.816406 26 21.125 L 26 4.875 C 26 2.183594 23.816406 0 21.125 0 Z M 18.015625 21.203125 C 18.015625 21.269531 17.984375 21.332031 17.9375 21.378906 C 17.871094 21.433594 16.394531 22.695313 13 22.695313 C 8.929688 22.695313 8.8125 18.15625 8.8125 17.640625 L 8.8125 11.917969 L 6.871094 11.917969 C 6.742188 11.917969 6.640625 11.8125 6.640625 11.683594 L 6.640625 9.644531 C 6.640625 9.546875 6.699219 9.460938 6.789063 9.425781 C 6.824219 9.410156 10.464844 7.949219 10.464844 4.515625 C 10.464844 4.386719 10.566406 4.28125 10.695313 4.28125 L 13 4.28125 C 13.128906 4.28125 13.234375 4.386719 13.234375 4.515625 L 13.234375 8.84375 L 16.996094 8.84375 C 17.128906 8.84375 17.230469 8.949219 17.230469 9.078125 L 17.230469 11.859375 C 17.230469 11.988281 17.128906 12.09375 16.996094 12.09375 L 13.234375 12.09375 L 13.234375 17.550781 C 13.234375 17.621094 13.261719 19.320313 15 19.320313 C 16.4375 19.320313 17.644531 18.578125 17.65625 18.570313 C 17.726563 18.523438 17.820313 18.523438 17.894531 18.566406 C 17.96875 18.605469 18.011719 18.683594 18.011719 18.769531 L 18.011719 21.203125 Z"/></svg>