<?xml version="1.0" standalone="no"?>
<!DOCTYPE svg PUBLIC "-//W3C//DTD SVG 20010904//EN"
 "http://www.w3.org/TR/2001/REC-SVG-20010904/DTD/svg10.dtd">
<svg version="1.0" xmlns="http://www.w3.org/2000/svg"
 width="128.000000pt" height="128.000000pt" viewBox="0 0 128.000000 128.000000"
 preserveAspectRatio="xMidYMid meet">
<metadata>
Created by potrace 1.14, written by Peter Selinger 2001-2017
</metadata>
<g transform="translate(0.000000,128.000000) scale(0.100000,-0.100000)"
fill="#000000" stroke="none">
<path d="M606 1104 c-30 -79 31 -166 144 -204 81 -27 99 -37 128 -67 22 -25
30 -63 12 -63 -5 0 -10 -5 -10 -12 0 -6 -15 -24 -32 -40 -26 -23 -39 -28 -64
-24 -21 5 -45 -1 -80 -19 -27 -14 -71 -32 -98 -40 -58 -17 -76 -31 -76 -56 0
-41 -102 -36 -145 7 -41 41 -45 98 -12 174 30 71 15 167 -38 234 -18 23 -34
13 -18 -12 21 -35 12 -120 -20 -185 -52 -106 -64 -219 -29 -284 30 -55 122
-87 215 -74 64 9 71 5 81 -49 5 -29 16 -42 65 -73 51 -33 60 -44 70 -82 17
-67 41 -73 136 -36 118 48 140 81 90 135 -14 16 -32 38 -41 51 -14 21 -13 23
11 39 32 21 36 75 6 83 -22 6 -35 64 -17 75 31 18 74 55 101 87 26 30 30 43
32 100 1 36 -2 72 -7 81 -27 48 -84 89 -150 105 -149 36 -183 52 -214 100 -10
15 -18 35 -19 46 -2 23 -13 25 -21 3z"/>
</g>
</svg>
